<?xml version="1.0" encoding="UTF-8" standalone="no"?>
<svg
   xmlns:dc="http://purl.org/dc/elements/1.1/"
   xmlns:cc="http://creativecommons.org/ns#"
   xmlns:rdf="http://www.w3.org/1999/02/22-rdf-syntax-ns#"
   xmlns:svg="http://www.w3.org/2000/svg"
   xmlns="http://www.w3.org/2000/svg"
   xmlns:sodipodi="http://sodipodi.sourceforge.net/DTD/sodipodi-0.dtd"
   xmlns:inkscape="http://www.inkscape.org/namespaces/inkscape"
   width="16.648916mm"
   height="2.1554549mm"
   overflow="hidden"
   version="1.1"
   id="svg23"
   sodipodi:docname="slogotype_70s.svg"
   style="overflow:hidden"
   inkscape:version="0.92.5 (2060ec1f9f, 2020-04-08)">
  <metadata
     id="metadata27">
    <rdf:RDF>
      <cc:Work
         rdf:about="">
        <dc:format>image/svg+xml</dc:format>
        <dc:type
           rdf:resource="http://purl.org/dc/dcmitype/StillImage" />
        <dc:title></dc:title>
      </cc:Work>
    </rdf:RDF>
  </metadata>
  <sodipodi:namedview
     pagecolor="#ffffff"
     bordercolor="#666666"
     borderopacity="1"
     objecttolerance="10"
     gridtolerance="10"
     guidetolerance="10"
     inkscape:pageopacity="0"
     inkscape:pageshadow="2"
     inkscape:window-width="1917"
     inkscape:window-height="1102"
     id="namedview25"
     showgrid="false"
     inkscape:zoom="1.084375"
     inkscape:cx="37.49094"
     inkscape:cy="-11.465275"
     inkscape:window-x="72"
     inkscape:window-y="27"
     inkscape:window-maximized="0"
     inkscape:current-layer="svg23"
     units="mm"
     fit-margin-top="0"
     fit-margin-left="0"
     fit-margin-right="0"
     fit-margin-bottom="0" />
  <defs
     id="defs5" />
  <g
     id="g3751"
     transform="matrix(0.057,0,0,0.057,-4.6738623,-15.561)">
    <path
       d="m 451.501,313.644 -326.224,0.251 c -1,0.502 -1.875,0.753 -3,1.507 -1.125,0.753 -2.792,1.967 -3.75,3.013 -0.958,1.046 -1.625,2.72 -2,3.264 -0.375,0.544 -0.166,0 -0.25,0 l -26.2477,50.724 c 0.0554,5.748 -0.2915,5.357 0.5001,7.533 0.7917,2.176 2.2497,4.353 4.2495,5.525 1.9999,1.171 6.7271,1.506 7.7491,1.506 h 239.481 c 0.75,-0.084 0.667,0.251 2.25,-0.251 1.583,-0.502 5.292,-1.632 7.25,-2.762 1.712,-1.72 3.161,-3.121 4.499,-4.018 1.917,-3.432 7.875,-13.978 9.25,-18.582 -0.084,-2.511 1.401,-4.774 -1,-9.04 -2.25,-2.092 -1.792,-3.222 -3.5,-4.52 -1.708,-1.297 -3.5,-2.385 -6.75,-3.264 l -186.485,1.005 c -5.666,1.13 -7.291,-1.968 -9.499,-5.525 -2.208,-3.557 -0.875,-6.905 -0.75,-11.3 3.208,-9.918 15.874,-32.937 19.498,-39.926 1.667,-1.506 3.208,-3.348 5,-4.52 1.792,-1.171 4.666,-2.008 5.75,-2.511 0.25,-0.167 0.473,-0.383 0.75,-0.502 0.315,-0.136 1,-0.251 1,-0.251 l 242.48,0.502 c 0.667,0.251 2.208,1.047 3.25,2.26 1.042,1.214 2.417,2.972 3,5.022 -0.518,5.46 0.286,3.694 -0.75,5.776 l -32.498,62.526 c -0.553,5.563 -0.166,8.453 1,11.048 1.167,2.595 4,3.474 6,4.52 2,1.046 3.291,1.423 5.999,1.758 2.709,0.335 9.166,0.251 10.25,0.251 l 16.498,-1.256 16.499,-4.52"
       stroke-miterlimit="10"
       id="path9"
       inkscape:connector-curvature="0"
       style="fill:none;fill-rule:evenodd;stroke:#2f528f;stroke-width:16;stroke-linecap:round;stroke-linejoin:round;stroke-miterlimit:10" />
    <path
       d="m 487.257,327.318 -18,37.585 c -0.083,1.002 -0.3,2.002 -0.25,3.007 0.051,1.007 0.667,2.213 1.25,3.257 0.584,1.044 1.891,2.767 2.25,3.007 1.125,0.501 2.792,0.877 4.5,1.253 l 5.5,0.501 15.999,-0.251 c 5.97,-1.316 8.439,-0.627 14.409,-1.943 l 7.09,-1.815 c 0.493,-0.11 2.698,-0.618 3.5,-0.752 3.721,-0.621 0.054,0.089 3,-0.501 0.167,-0.334 0.276,-0.703 0.5,-1.002 1.792,-2.394 0.239,0.011 1.75,-1.504 0.575,-0.576 0.692,-0.886 1,-1.503 l 17.249,-36.833 -38.998,78.176 20.499,-40.341 21.499,-2.505 c 1.485,0.093 -18.131,4.112 -15.59,3.068 2.542,-1.044 21.033,-4.186 27.34,-6.827 7,-3.257 8.999,-6.014 13.499,-9.02 l 14.25,-24.556 13.999,-30.819 -33.749,64.896 c -0.083,2.589 -2.416,6.932 -2.499,9.522 3.249,4.844 3.249,5.679 8.249,5.011 l 42.499,-18.041 12.999,-22.801 c 0.913,-1.448 1.577,-1.392 2.49,-2.84 l 2.76,-2.673 2,-1.002 6,-2.756 4.499,0.251 20.25,0.501 6.249,0.501 4.75,3.007 c 0.792,1.712 2.042,4.092 2,6.264 -0.042,2.171 -0.542,1.545 -2.25,6.765 l -9.999,25.558 -5.25,4.259 -6.5,2.506 -27.749,-1.002 -9.5,-2.506 -3.499,-5.011 -2.75,-8.018"
       stroke-miterlimit="10"
       id="path11"
       inkscape:connector-curvature="0"
       style="fill:none;fill-rule:evenodd;stroke:#2f528f;stroke-width:16;stroke-linecap:round;stroke-linejoin:round;stroke-miterlimit:10" />
    <path
       d="m 662,374.691 27.25,-7.952 9.25,-2.484 8,-5.964 8.75,-7.952 L 730,324.994 688.75,406 l 42.5,-82 6.25,2.982 11.25,0.745 17.5,0.249 6,0.994 4,2.236 3,4.721 0.75,4.225 -2,7.454 -7.25,18.885 -6.25,5.715 -9.5,2.236 c -10.75,1.409 -15.25,0.829 -24.25,0.994 H 712.5 l -11.75,-12.175"
       stroke-miterlimit="10"
       id="path13"
       inkscape:connector-curvature="0"
       style="fill:none;fill-rule:evenodd;stroke:#2f528f;stroke-width:16;stroke-linecap:round;stroke-linejoin:round;stroke-miterlimit:10" />
    <path
       d="m 770,370.119 31.96,-14.021 9.488,-9.514 12.984,-24.537 11.985,-31.047 -40.449,82.624 24.469,-43.816 8.739,-0.751 6.742,1.002 29.463,-1.753 5.244,2.504 2.746,3.756 1.748,3.755 -0.249,4.757 -7.241,16.025 c -2.58,4.006 -3.413,5.758 -4.994,12.018 -0.541,2.795 0.832,3.63 1.748,4.757 0.915,1.126 1.498,2.545 3.745,2.003 4.245,-2.17 4.994,-2.087 9.738,-5.258 l 25.218,-14.772 5.993,-8.513 9.988,-17.276 4.244,-2.754 3.995,-1.753 4.744,0.25 4.495,0.501 9.238,0.501 8.49,-0.501 5.243,-0.751 4.744,1.502 4.744,3.255 1.998,4.507 v 6.259 l -11.735,25.038 -5.244,4.507 -5.493,4.006 -16.23,-0.251 h -20.474 l -5.244,-2.253 -2.497,-2.504 -2.497,-3.755 -0.499,-5.008"
       stroke-miterlimit="10"
       id="path15"
       inkscape:connector-curvature="0"
       style="fill:none;fill-rule:evenodd;stroke:#2f528f;stroke-width:16;stroke-linecap:round;stroke-linejoin:round;stroke-miterlimit:10" />
    <path
       d="m 956,373.305 29.717,-11.822 10.488,-9.606 16.485,-23.892 -26.224,47.045 24.724,-47.537 11.73,2.463 37.21,0.246 6,1.724 c 1.37,1.026 2.62,1.847 2.99,3.202 0.38,1.355 1.79,1.191 -0.25,5.665 l -12.73,22.414 -3.25,5.911 c -0.79,2.176 -1.41,3.941 -0.75,4.926 0.67,0.986 1.21,2.422 5.75,2.71 l 20.22,0.246 h 7.49 l 8.24,-3.202 5,-15.271 9.74,-13.054 8.49,-11.576 c 2,-3.695 5.49,-4.68 8.24,-6.897 l -3.5,1.478 56.19,-0.985 -54.44,-0.247 -17.73,23.892 -8.99,11.823 -1,8.128 5,1.97 c 2.16,3.202 5.82,3.202 7.99,3.695 h 47.44"
       stroke-miterlimit="10"
       id="path17"
       inkscape:connector-curvature="0"
       style="fill:none;fill-rule:evenodd;stroke:#2f528f;stroke-width:16;stroke-linecap:round;stroke-linejoin:round;stroke-miterlimit:10" />
    <path
       d="m 1063.5,351.5 h 117"
       stroke-miterlimit="10"
       id="path19"
       inkscape:connector-curvature="0"
       style="fill:none;fill-rule:evenodd;stroke:#2f528f;stroke-width:10.66670036;stroke-linecap:round;stroke-linejoin:round;stroke-miterlimit:10" />
  </g>
</svg>
